<?xml version="1.0" encoding="UTF-8" standalone="no"?>
<svg
   xmlns:dc="http://purl.org/dc/elements/1.1/"
   xmlns:cc="http://creativecommons.org/ns#"
   xmlns:rdf="http://www.w3.org/1999/02/22-rdf-syntax-ns#"
   xmlns:svg="http://www.w3.org/2000/svg"
   xmlns="http://www.w3.org/2000/svg"
   xmlns:sodipodi="http://sodipodi.sourceforge.net/DTD/sodipodi-0.dtd"
   xmlns:inkscape="http://www.inkscape.org/namespaces/inkscape"
   width="512px"
   height="107px"
   viewBox="0 0 512 107"
   version="1.1"
   id="svg16"
   sodipodi:docname="app-logo.svg"
   inkscape:version="0.92.3 (2405546, 2018-03-11)">
  <metadata
     id="metadata22">
    <rdf:RDF>
      <cc:Work
         rdf:about="">
        <dc:format>image/svg+xml</dc:format>
        <dc:type
           rdf:resource="http://purl.org/dc/dcmitype/StillImage" />
      </cc:Work>
    </rdf:RDF>
  </metadata>
  <defs
     id="defs20" />
  <sodipodi:namedview
     pagecolor="#ffffff"
     bordercolor="#666666"
     borderopacity="1"
     objecttolerance="10"
     gridtolerance="10"
     guidetolerance="10"
     inkscape:pageopacity="0"
     inkscape:pageshadow="2"
     inkscape:window-width="1920"
     inkscape:window-height="1051"
     id="namedview18"
     showgrid="false"
     inkscape:zoom="1.1904806"
     inkscape:cx="140.10006"
     inkscape:cy="16.620987"
     inkscape:window-x="1920"
     inkscape:window-y="0"
     inkscape:window-maximized="1"
     inkscape:current-layer="svg16" />
  <!-- Generator: Sketch 61 (89581) - https://sketch.com -->
  <title
     id="title2">Group</title>
  <desc
     id="desc4">Created with Sketch.</desc>
  <path
     d="M 169.12076,65.967388 H 149.96979 V 55.307607 h 18.065 v -6.792279 h -18.065 V 38.328575 h 19.14763 v -7.291957 h -27.98858 v 42.249376 h 27.98858 v -7.318606 z m 33.04532,7.318606 14.19416,-42.249376 h -9.63378 l -9.66042,33.145257 h -0.20654 l -9.66042,-33.145257 h -9.89361 l 14.19749,42.249376 h 10.65978 z m 50.98706,-7.318606 H 234.00551 V 55.307607 h 18.065 v -6.792279 h -18.065 V 38.328575 h 19.14763 v -7.291957 h -27.98859 v 42.249376 h 27.98859 z m 19.7206,-28.018568 v 13.467967 h 7.61508 c 4.45045,0 7.05544,-2.548354 7.05544,-6.735649 0,-4.097353 -2.75156,-6.732318 -7.14539,-6.732318 h -7.5218 z m 0,19.87716 v 15.460014 h -8.84096 V 31.036618 h 17.30549 c 9.72039,0 15.28346,5.123358 15.28346,13.467967 0,5.416501 -2.81152,10.103474 -7.67171,12.005579 l 8.90091,16.77583 H 287.8374 l -7.87491,-15.456682 h -7.08542 z m 71.81028,-2.281859 v -4.776914 h -17.80184 v 6.442505 h 9.19406 l -0.0333,0.672898 c -0.17322,5.239949 -4.18396,8.784326 -9.95024,8.784326 -7.02879,0 -11.47925,-5.593054 -11.47925,-14.757134 0,-8.987528 4.1873,-14.290769 11.15613,-14.290769 4.77358,0 8.37459,2.638296 9.66042,7.062105 h 8.87094 c -1.25919,-8.551143 -8.69438,-14.37738 -18.56134,-14.37738 -12.41199,0 -20.14366,8.194707 -20.14366,21.722635 0,13.731131 7.72834,21.985798 20.35019,21.985798 11.76906,0 18.7379,-6.9655 18.7379,-18.471401 z M 363.8483,37.94882 v 13.467967 h 7.61175 c 4.45046,0 7.05545,-2.548354 7.05545,-6.735649 0,-4.097353 -2.75156,-6.732318 -7.14206,-6.732318 z m 0,19.87716 v 15.460014 h -8.84095 V 31.036618 h 17.30215 c 9.72039,0 15.28347,5.123358 15.28347,13.467967 0,5.416501 -2.81152,10.103474 -7.67172,12.005579 l 8.90092,16.77583 h -10.01353 l -7.87491,-15.456682 h -7.08543 z m 62.0266,8.141408 H 406.72727 V 55.307607 h 18.065 v -6.792279 h -18.065 V 38.328575 h 19.14763 v -7.291957 h -27.98858 v 42.249376 h 27.98858 z m 38.87156,0 H 445.59883 V 55.307607 h 18.065 v -6.792279 h -18.065 V 38.328575 h 19.14763 v -7.291957 h -27.99192 v 42.249376 h 27.99192 z m 19.34084,7.318606 V 45.6172 h 0.26316 l 19.76391,27.668794 h 7.3186 V 31.036618 h -8.4612 V 58.55884 h -0.23318 L 483.00467,31.036618 h -7.37857 v 42.249376 z"
     id="path6"
     inkscape:connector-curvature="0"
     style="fill:#1f4160;fill-rule:nonzero;stroke:none;stroke-width:1" />
  <circle
     cx="53.298904"
     cy="53.298904"
     r="53.298904"
     id="circle8"
     style="fill:#eb6539;fill-rule:nonzero;stroke:none;stroke-width:1;fill-opacity:1" />
  <path
     d="M 56.630086,73.285994 V 86.61072 H 49.967723 V 73.285994 Z M 53.298905,23.318271 76.617175,69.954812 H 29.980634 Z"
     id="path10"
     inkscape:connector-curvature="0"
     style="fill:#ffffff;fill-rule:nonzero;stroke:none;stroke-width:1" />
</svg>
