<svg width="80" height="80" viewBox="0 0 80 80" fill="none" xmlns="http://www.w3.org/2000/svg">
<path d="M40 80C17.9501 80 0 62.0499 0 40C0 17.9501 17.9501 0 40 0C62.0499 0 80 17.9501 80 40C80 62.0499 62.0499 80 40 80ZM40 2.21607C19.169 2.21607 2.21607 19.169 2.21607 40C2.21607 60.831 19.169 77.7839 40 77.7839C60.831 77.7839 77.7839 60.831 77.7839 40C77.7839 19.169 60.831 2.21607 40 2.21607Z" fill="#EE6232"/>
<path d="M53.9217 20.0001C53.735 19.9968 53.5517 20.0509 53.399 20.1558C53.399 20.1558 52.2652 20.9643 49.2034 21.8472C46.1415 22.7302 41.2263 23.6267 33.9111 23.6267C33.5818 23.6267 33.2797 23.8127 33.1337 24.107L20.1633 49.9594C19.9257 50.291 19.9495 50.7409 20.221 51.042C20.2346 51.0589 20.2482 51.0724 20.2584 51.0826C20.2753 51.0995 20.2889 51.113 20.3059 51.1266C20.3059 51.1299 20.3059 51.1299 20.3059 51.1299C20.3229 51.1435 20.3364 51.1536 20.3534 51.1638C20.5944 51.3701 30.8526 60 47.815 60C48.1477 60 48.4498 59.8106 48.5958 59.5129L59.9063 36.4784C60.0387 36.2146 60.0319 35.9 59.8791 35.6462C59.7298 35.3925 59.4616 35.2335 59.1663 35.22C58.8166 35.2065 58.4942 35.3993 58.3448 35.7139L47.2889 58.2375C41.8101 58.1732 37.1053 57.1888 33.2492 55.9168C36.3348 56.3498 39.8685 56.4175 43.7823 55.7375C44.0573 55.6901 44.2915 55.5142 44.4171 55.2639L58.3346 26.9149C58.4772 26.6375 58.4568 26.3059 58.2871 26.0455C58.1174 25.785 57.8186 25.6395 57.5097 25.6564C57.1907 25.6767 56.9089 25.8662 56.7765 26.1503L43.0627 54.0731C36.3789 55.1455 30.89 54.0088 27.1085 52.6387C27.156 52.6421 27.2035 52.6523 27.2544 52.6556C31.0393 53.109 35.7984 53.1428 39.7395 51.2551C39.916 51.1705 40.0586 51.0285 40.1434 50.8525L54.6787 21.2451C54.8077 20.9812 54.7941 20.67 54.6414 20.4196C54.4852 20.1659 54.2171 20.0103 53.9217 20.0001ZM52.0616 22.6355L38.7347 49.7801C35.3402 51.3126 30.9918 51.36 27.4615 50.9371C24.8342 50.6259 23.1064 50.1861 22.1287 49.9155L34.4644 25.3249C41.5691 25.2741 46.5421 24.4149 49.6854 23.5116C50.7615 23.2004 51.3657 22.923 52.0616 22.6355Z" fill="#EE6232" stroke="#EE6232" stroke-width="0.5"/>
</svg>
